<?xml version="1.0" encoding="UTF-8"?>
<svg width="1296" height="500" xmlns="http://www.w3.org/2000/svg" viewBox="0 0 1296.41 500"><path d="M168.18,115.25c1.13,2.56,2.65,4.8,4.55,6.74,1.9,1.94,4.14,3.45,6.74,4.55,2.59,1.1,5.35,1.64,8.27,1.64s5.66-.55,8.22-1.64c2.56-1.1,4.8-2.61,6.74-4.55,1.93-1.93,3.45-4.18,4.55-6.74,1.1-2.56,1.64-5.3,1.64-8.22s-.55-5.66-1.64-8.22c-1.1-2.56-2.61-4.8-4.55-6.74-1.94-1.93-4.18-3.45-6.74-4.55-2.56-1.1-5.3-1.64-8.22-1.64s-5.68,.55-8.27,1.64c-2.59,1.1-4.84,2.61-6.74,4.55-1.9,1.94-3.42,4.18-4.55,6.74-1.13,2.56-1.7,5.3-1.7,8.22s.56,5.66,1.7,8.22Zm-42.35,122.93c1.1,2.56,2.61,4.8,4.55,6.74,1.93,1.94,4.18,3.45,6.74,4.55,2.56,1.1,5.3,1.64,8.22,1.64h84.91c2.92,0,5.68-.55,8.27-1.64,2.59-1.1,4.84-2.61,6.74-4.55,1.9-1.93,3.4-4.18,4.49-6.74,1.1-2.56,1.64-5.3,1.64-8.22v-46.68h-97.62v-12.71h97.62v-8.44c0-2.92-.55-5.66-1.64-8.22-1.1-2.56-2.59-4.8-4.49-6.74-1.9-1.93-4.15-3.45-6.74-4.55-2.59-1.1-5.35-1.64-8.27-1.64h-84.91c-2.92,0-5.66,.55-8.22,1.64-2.56,1.1-4.8,2.61-6.74,4.55-1.94,1.94-3.45,4.18-4.55,6.74-1.1,2.56-1.64,5.3-1.64,8.22v46.68h97.41v12.71H124.19v8.44c0,2.92,.55,5.66,1.64,8.22Zm202.88,73.58h-21.93v-9.26h54.82v9.26h-22.03v66.48h-10.86v-66.48Zm39.28,49.34v-38h10.54v35.71c0,8.25,3.41,11.6,10.48,11.6,7.88,0,13.94-6.87,13.94-15.17v-32.15h10.59v55.14h-10.27l-.11-7.72c-3.25,5.32-9.31,8.78-17.4,8.78-11.34,0-17.78-6.07-17.78-18.2Zm5.64-51.09c0-3.57,2.66-6.23,6.44-6.23,4.74,0,6.55,3.83,6.55,6.23,.11,4.1-3.89,6.28-6.55,6.12-3.73,0-6.44-2.77-6.44-6.12Zm21.5,0c-.05-4.04,3.73-6.44,6.39-6.23,4.74,0,6.55,3.83,6.55,6.23,0,4.21-3.78,6.12-6.55,6.12-3.67,0-6.39-2.77-6.39-6.12Zm46.62,63.55l-.21,4.68h-10.11v-80.1h10.59v31.62c2.29-4.31,9.21-7.77,15.59-7.77,14.1,0,22.09,9.74,22.09,27.94s-8.73,29.38-23.31,29.38c-6.87,0-11.66-2.5-14.64-5.75Zm26.61-23.52c0-13.09-4.79-19.11-12.99-19.11s-13.36,6.81-13.36,19.43v13.94c2.71,3.99,6.87,6.44,12.19,6.44,11.71,0,14.16-11.66,14.16-20.7Zm27.89-19.11c-3.25-.48-5.64-.74-7.19-.85v-6.97h17.78v55.14h-10.59v-47.32Zm-2.93-25.28c0-4.04,3.78-6.65,6.65-6.65,4.15,0,7.19,3.41,7.19,6.44,0,4.63-4.04,6.76-6.87,6.76-3.78,0-6.97-2.93-6.97-6.55Zm32.15,17.46h10.11l.21,7.72c3.35-5.27,9.26-8.84,17.35-8.84,13.15,0,17.88,8.89,17.88,17.99v38.27h-10.59v-35.23c0-8.3-3.46-11.97-10.54-11.97-9.95,0-13.84,9.58-13.84,15.17v32.04h-10.59v-55.14Zm67.27,76.27l1.6-8.04c4.68,1.17,9.1,1.76,13.31,1.76,11.07,0,16.02-4.52,16.02-14.1v-8.46c-3.62,5.54-8.52,8.04-15.81,8.04-12.61,0-21.77-8.09-21.77-27.89,0-18.31,10.01-28.69,22.57-28.69,7.98,0,12.93,3.35,15.12,5.8l.27-4.68h10.11v55.25c0,16.02-8.89,22.99-24.32,22.99-8.3,0-13.84-1.17-17.08-1.97Zm30.82-46.62v-16.61c-3.35-3.3-6.87-5.22-11.98-5.22-8.3,0-14.05,7.19-14.05,19.75,0,10.22,2.55,19.37,12.99,19.37s13.04-9.95,13.04-17.3Zm25.97-1.97c0-17.24,8.62-29.01,24.43-29.01,14.69,0,22.19,9.15,22.19,25.71,0,2.45-.05,4.58-.21,6.44h-35.18c.85,11.12,6.07,17.24,16.66,17.24,4.9,0,9.74-.74,13.2-1.76l2.08,8.09c-4.63,1.44-9.74,2.08-16.82,2.08-16.77,0-26.35-11.18-26.35-28.79Zm35.5-4.47v-2.5c0-9.1-3.51-14.26-11.34-14.26-8.25,0-12.51,6.17-13.15,16.76h24.48Zm25.87-23.21h10.11l.21,7.72c3.35-5.27,9.26-8.84,17.35-8.84,13.15,0,17.88,8.89,17.88,17.99v38.27h-10.59v-35.23c0-8.3-3.46-11.97-10.54-11.97-9.95,0-13.84,9.58-13.84,15.17v32.04h-10.59v-55.14ZM314.82,175.4h10.91v31.51l29.01-31.51h13.41l-32.36,34.86c4.58,3.67,9.37,8.14,14.32,13.52,4.95,5.32,9.21,10.38,12.67,15.17,3.51,4.74,6.33,8.84,8.52,12.19h-13.52c-3.25-4.63-6.76-9.21-10.54-13.84s-7.5-8.78-11.23-12.51c-3.73-3.78-7.13-6.97-10.27-9.63v35.98h-10.91v-75.74Zm66.1,20.6h10.11l.21,10.43c3.67-7.77,10.38-10.91,15.59-10.75,1.81,0,3.19,.11,4.15,.32v10.01c-.85-.21-2.13-.32-3.78-.32-10.59,0-15.7,8.73-15.7,15.59v29.86h-10.59v-55.14Zm37.26,27.68c0-17.24,8.62-29.01,24.43-29.01,14.69,0,22.19,9.15,22.19,25.71,0,2.45-.05,4.58-.21,6.44h-35.18c.85,11.12,6.07,17.24,16.66,17.24,4.9,0,9.74-.74,13.2-1.76l2.08,8.09c-4.63,1.44-9.74,2.08-16.82,2.08-16.77,0-26.35-11.18-26.35-28.79Zm35.5-4.47v-2.5c0-9.1-3.51-14.26-11.34-14.26-8.25,0-12.51,6.17-13.15,16.76h24.48Zm27.04-15.38c-3.25-.48-5.64-.74-7.19-.85v-6.97h17.78v55.14h-10.59v-47.32Zm-2.93-25.28c0-4.04,3.78-6.65,6.65-6.65,4.15,0,7.19,3.41,7.19,6.44,0,4.63-4.04,6.76-6.87,6.76-3.78,0-6.97-2.93-6.97-6.55Zm27.89,69.88l2.82-7.98c5.11,2.08,9.85,3.3,16.13,3.3,9.85,0,12.24-3.62,12.24-7.56s-3.3-6.01-7.77-7.4c-11.87-3.73-21.77-6.23-21.77-17.78,0-10.43,8.14-16.13,20.38-16.13,7.24,0,12.4,.96,16.45,2.18v8.73c-4.63-1.54-9.63-2.5-15.81-2.5-7.29,0-10.7,2.23-10.7,6.87s5.06,6.17,13.31,8.73c12.67,3.88,16.71,8.36,16.71,16.66,0,11.28-8.89,16.66-22.35,16.66-9.9,0-16.71-2.4-19.64-3.78Zm51.57,0l2.82-7.98c5.11,2.08,9.85,3.3,16.13,3.3,9.85,0,12.24-3.62,12.24-7.56s-3.3-6.01-7.77-7.4c-11.87-3.73-21.77-6.23-21.77-17.78,0-10.43,8.14-16.13,20.38-16.13,7.24,0,12.4,.96,16.45,2.18v8.73c-4.63-1.54-9.63-2.5-15.81-2.5-7.29,0-10.7,2.23-10.7,6.87s5.06,6.17,13.31,8.73c12.67,3.88,16.71,8.36,16.71,16.66,0,11.28-8.89,16.66-22.35,16.66-9.9,0-16.71-2.4-19.64-3.78Zm56.26-52.42h10.11l.21,8.04c2.71-5.54,9.31-9.15,15.81-9.15,17.19,0,22.14,14.16,22.14,27.94,0,18.63-8.36,29.38-23.74,29.38-6.23,0-10.7-1.7-13.94-4.42v25.39h-10.59v-77.17Zm36.94,27.04c0-13.31-5-19.21-12.99-19.21-8.57,0-13.36,8.52-13.36,20.49v14.16c3.19,3.19,6.92,5.16,11.76,5.16,12.35,0,14.58-10.96,14.58-20.6Zm22.89,12.51c0-8.36,3.89-13.68,11.34-16.66,5.38-2.13,12.03-2.61,21.4-2.61v-2.98c0-8.14-4.63-10.33-12.88-10.33-5.96,0-10.86,1.38-15.49,3.03v-8.62c7.29-1.97,10.43-2.5,17.56-2.5,14.69,0,21.24,5.54,21.24,18.31v37.95h-10.01l-.21-4.68c-2.93,2.93-9.47,5.75-15.91,5.75-9.26,0-17.03-4.58-17.03-16.66Zm32.73,3.41v-14.96h-3.94c-12.29,0-18.2,2.82-18.2,11.12,0,5.64,3.3,8.94,9.37,8.94,6.6,0,11.23-3.41,12.77-5.11Zm28-42.95h10.11l.21,10.43c3.67-7.77,10.38-10.91,15.59-10.75,1.81,0,3.19,.11,4.15,.32v10.01c-.85-.21-2.13-.32-3.78-.32-10.59,0-15.7,8.73-15.7,15.59v29.86h-10.59v-55.14Zm40.45-24.96h10.59v46.3l20.6-21.34h12.72l-23.21,23.84c9.15,8.04,18.47,20.22,25.71,31.29h-13.25c-2.24-3.19-4.74-6.55-7.5-10.06-2.71-3.51-5.38-6.71-7.98-9.58-2.55-2.87-4.9-5.38-7.08-7.5v27.14h-10.59v-80.1Zm51.52,64.51c0-8.36,3.89-13.68,11.34-16.66,5.38-2.13,12.03-2.61,21.4-2.61v-2.98c0-8.14-4.63-10.33-12.88-10.33-5.96,0-10.86,1.38-15.49,3.03v-8.62c7.29-1.97,10.43-2.5,17.56-2.5,14.69,0,21.24,5.54,21.24,18.31v37.95h-10.01l-.21-4.68c-2.93,2.93-9.47,5.75-15.91,5.75-9.26,0-17.03-4.58-17.03-16.66Zm32.73,3.41v-14.96h-3.94c-12.29,0-18.2,2.82-18.2,11.12,0,5.64,3.3,8.94,9.37,8.94,6.6,0,11.23-3.41,12.77-5.11Zm23.74,9.47l2.82-7.98c5.11,2.08,9.85,3.3,16.13,3.3,9.85,0,12.24-3.62,12.24-7.56s-3.3-6.01-7.77-7.4c-11.87-3.73-21.77-6.23-21.77-17.78,0-10.43,8.14-16.13,20.38-16.13,7.24,0,12.4,.96,16.45,2.18v8.73c-4.63-1.54-9.63-2.5-15.81-2.5-7.29,0-10.7,2.23-10.7,6.87s5.06,6.17,13.31,8.73c12.67,3.88,16.71,8.36,16.71,16.66,0,11.28-8.89,16.66-22.35,16.66-9.9,0-16.71-2.4-19.64-3.78Zm51.57,0l2.82-7.98c5.11,2.08,9.85,3.3,16.13,3.3,9.85,0,12.24-3.62,12.24-7.56s-3.3-6.01-7.77-7.4c-11.87-3.73-21.77-6.23-21.77-17.78,0-10.43,8.14-16.13,20.38-16.13,7.24,0,12.4,.96,16.45,2.18v8.73c-4.63-1.54-9.63-2.5-15.81-2.5-7.29,0-10.7,2.23-10.7,6.87s5.06,6.17,13.31,8.73c12.67,3.88,16.71,8.36,16.71,16.66,0,11.28-8.89,16.66-22.35,16.66-9.9,0-16.71-2.4-19.64-3.78Zm53.75-24.75c0-17.24,8.62-29.01,24.43-29.01,14.69,0,22.19,9.15,22.19,25.71,0,2.45-.05,4.58-.21,6.44h-35.18c.85,11.12,6.07,17.24,16.66,17.24,4.9,0,9.74-.74,13.2-1.76l2.08,8.09c-4.63,1.44-9.74,2.08-16.82,2.08-16.77,0-26.35-11.18-26.35-28.79Zm35.5-4.47v-2.5c0-9.1-3.51-14.26-11.34-14.26-8.25,0-12.51,6.17-13.15,16.76h24.48Z" fill="#ffffff"/></svg>