<?xml version="1.0"?>
<svg xmlns="http://www.w3.org/2000/svg" viewBox="0 0 168 76" width="168" height="76" version="1.1">
  <rect width="100%" height="100%" fill="#d41815" />
  <path fill="white" d="M149.373,51.355V53h-1.064v0.949h1.064v3.746c0,0.81,0.127,1.419,0.48,1.787c0.299,0.34,0.766,0.524,1.348,0.524   c0.482,0,0.867-0.071,1.107-0.171l-0.057-0.935c-0.156,0.043-0.396,0.085-0.723,0.085c-0.697,0-0.939-0.481-0.939-1.334v-3.703   h1.789V53h-1.789v-1.972L149.373,51.355z M145.769,56.984c0,0.199-0.014,0.369-0.057,0.539c-0.227,0.938-0.994,1.492-1.83,1.492   c-1.348,0-2.029-1.15-2.029-2.54c0-1.52,0.766-2.654,2.057-2.654c0.938,0,1.619,0.653,1.803,1.448   c0.043,0.156,0.057,0.369,0.057,0.524V56.984z M145.769,49.794v4.099h-0.027c-0.313-0.552-1.023-1.048-2.072-1.048   c-1.676,0-3.092,1.402-3.078,3.687c0,2.086,1.275,3.489,2.936,3.489c1.121,0,1.959-0.58,2.342-1.346h0.029l0.055,1.189h1.119   c-0.041-0.468-0.055-1.163-0.055-1.772v-8.298H145.769z M137.869,57.553c0,0.128-0.029,0.27-0.07,0.397   c-0.199,0.582-0.768,1.15-1.662,1.15c-0.639,0-1.178-0.383-1.178-1.193c0-1.334,1.547-1.575,2.91-1.547V57.553z M139.187,59.864   c-0.086-0.468-0.113-1.05-0.113-1.645v-2.567c0-1.376-0.51-2.808-2.609-2.808c-0.867,0-1.689,0.24-2.256,0.608l0.283,0.823   c0.48-0.313,1.148-0.512,1.787-0.512c1.406,0,1.561,1.022,1.561,1.591v0.142c-2.652-0.014-4.127,0.893-4.127,2.552   c0,0.994,0.709,1.972,2.1,1.972c0.979,0,1.717-0.481,2.1-1.021h0.043l0.098,0.864H139.187z M129.841,51.355V53h-1.064v0.949h1.064   v3.746c0,0.81,0.127,1.419,0.48,1.787c0.299,0.34,0.766,0.524,1.348,0.524c0.482,0,0.865-0.071,1.105-0.171l-0.057-0.935   c-0.156,0.043-0.396,0.085-0.723,0.085c-0.695,0-0.936-0.481-0.936-1.334v-3.703h1.785V53h-1.785v-1.972L129.841,51.355z    M123.458,59.539c0.482,0.283,1.176,0.468,1.928,0.468c1.633,0,2.566-0.851,2.566-2.057c0-1.021-0.609-1.617-1.801-2.07   c-0.895-0.342-1.307-0.597-1.307-1.164c0-0.512,0.412-0.937,1.15-0.937c0.639,0,1.135,0.228,1.404,0.397l0.313-0.907   c-0.383-0.228-0.992-0.425-1.688-0.425c-1.477,0-2.369,0.905-2.369,2.013c0,0.823,0.582,1.504,1.814,1.944   c0.924,0.341,1.277,0.667,1.277,1.263c0,0.568-0.424,1.021-1.334,1.021c-0.625,0-1.275-0.256-1.643-0.496L123.458,59.539z    M117.841,59.539c0.482,0.283,1.176,0.468,1.928,0.468c1.633,0,2.566-0.851,2.566-2.057c0-1.021-0.609-1.617-1.801-2.07   c-0.893-0.342-1.305-0.597-1.305-1.164c0-0.512,0.412-0.937,1.148-0.937c0.641,0,1.135,0.228,1.404,0.397l0.313-0.907   c-0.383-0.228-0.992-0.425-1.688-0.425c-1.477,0-2.369,0.905-2.369,2.013c0,0.823,0.582,1.504,1.816,1.944   c0.922,0.341,1.277,0.667,1.277,1.263c0,0.568-0.426,1.021-1.336,1.021c-0.625,0-1.275-0.256-1.643-0.496L117.841,59.539z    M113.914,51.355V53h-1.064v0.949h1.064v3.746c0,0.81,0.127,1.419,0.482,1.787c0.297,0.34,0.764,0.524,1.346,0.524   c0.482,0,0.865-0.071,1.104-0.171l-0.055-0.935c-0.154,0.043-0.396,0.085-0.723,0.085c-0.695,0-0.936-0.481-0.936-1.334v-3.703   h1.785V53h-1.785v-1.972L113.914,51.355z M110.55,51.778c0.412,0,0.695-0.34,0.695-0.722c0-0.411-0.299-0.724-0.695-0.724   s-0.707,0.326-0.707,0.724C109.843,51.438,110.126,51.778,110.55,51.778 M107.927,51.778c0.41,0,0.693-0.34,0.693-0.722   c0-0.411-0.297-0.724-0.693-0.724s-0.723,0.326-0.723,0.724C107.205,51.438,107.501,51.778,107.927,51.778 M110.466,57.553   c0,0.128-0.027,0.27-0.07,0.397c-0.199,0.582-0.766,1.15-1.66,1.15c-0.639,0-1.178-0.383-1.178-1.193   c0-1.334,1.547-1.575,2.908-1.547V57.553z M111.785,59.864c-0.086-0.468-0.113-1.05-0.113-1.645v-2.567   c0-1.376-0.512-2.808-2.609-2.808c-0.867,0-1.688,0.24-2.256,0.608l0.283,0.823c0.482-0.313,1.148-0.512,1.789-0.512   c1.404,0,1.561,1.022,1.561,1.591v0.142c-2.654-0.014-4.129,0.893-4.129,2.552c0,0.994,0.709,1.972,2.098,1.972   c0.98,0,1.719-0.481,2.102-1.021h0.043l0.098,0.864H111.785z M102.439,51.355V53h-1.064v0.949h1.064v3.746   c0,0.81,0.127,1.419,0.482,1.787c0.297,0.34,0.764,0.524,1.346,0.524c0.482,0,0.865-0.071,1.105-0.171l-0.057-0.935   c-0.156,0.043-0.396,0.085-0.723,0.085c-0.695,0-0.938-0.481-0.938-1.334v-3.703h1.787V53h-1.787v-1.972L102.439,51.355z    M99.46,50.291c-0.455,0-0.781,0.341-0.781,0.779c0,0.425,0.313,0.765,0.752,0.765c0.496,0,0.807-0.34,0.793-0.765   C100.224,50.632,99.927,50.291,99.46,50.291 M100.083,53h-1.246v6.864h1.246V53z M92.736,59.539   c0.482,0.283,1.176,0.468,1.93,0.468c1.631,0,2.566-0.851,2.566-2.057c0-1.021-0.609-1.617-1.801-2.07   c-0.895-0.342-1.305-0.597-1.305-1.164c0-0.512,0.41-0.937,1.148-0.937c0.639,0,1.135,0.228,1.404,0.397l0.311-0.907   c-0.381-0.228-0.99-0.425-1.686-0.425c-1.477,0-2.369,0.905-2.369,2.013c0,0.823,0.582,1.504,1.814,1.944   c0.924,0.341,1.277,0.667,1.277,1.263c0,0.568-0.426,1.021-1.334,1.021c-0.625,0-1.275-0.256-1.645-0.496L92.736,59.539z    M88.582,59.864h1.232v-3.66c0-0.213,0.027-0.411,0.055-0.581c0.172-0.937,0.797-1.603,1.676-1.603c0.17,0,0.297,0.014,0.426,0.042   v-1.175c-0.115-0.029-0.213-0.043-0.355-0.043c-0.838,0-1.59,0.581-1.9,1.502h-0.057L89.615,53h-1.09   c0.041,0.639,0.057,1.333,0.057,2.143V59.864z M82.181,55.767c0.1-0.866,0.654-2.03,1.916-2.03c1.404,0,1.746,1.235,1.73,2.03   H82.181z M86.99,56.658c0.016-0.127,0.043-0.325,0.043-0.58c0-1.263-0.594-3.233-2.836-3.233c-2.001,0-3.219,1.63-3.219,3.7   c0,2.072,1.261,3.462,3.375,3.462c1.092,0,1.844-0.228,2.283-0.426l-0.211-0.893c-0.469,0.199-1.01,0.354-1.902,0.354   c-1.249,0-2.327-0.695-2.355-2.385H86.99z M73.943,53l2.609,6.864h1.19L80.437,53h-1.305L77.8,56.858   c-0.228,0.625-0.426,1.192-0.582,1.76h-0.043c-0.142-0.567-0.326-1.135-0.553-1.759L75.276,53H73.943z M72.097,50.291   c-0.452,0-0.778,0.341-0.778,0.779c0,0.425,0.312,0.765,0.751,0.765c0.495,0,0.807-0.34,0.793-0.765   C72.863,50.632,72.565,50.291,72.097,50.291 M72.72,53h-1.246v6.864h1.246V53z M63.603,59.864h1.246v-4.128   c0-0.213,0.027-0.425,0.085-0.581c0.213-0.696,0.852-1.277,1.675-1.277c1.178,0,1.589,0.923,1.589,2.028v3.958h1.247v-4.099   c0-2.354-1.475-2.921-2.425-2.921c-1.136,0-1.931,0.637-2.271,1.289h-0.027L64.651,53h-1.104c0.041,0.567,0.057,1.149,0.057,1.858   V59.864z M54.454,50.306v5.632c0,2.964,1.474,4.083,3.433,4.083c2.07,0,3.615-1.204,3.615-4.14v-5.575h-1.246v5.66   c0,2.112-0.908,3.05-2.328,3.05c-1.276,0-2.228-0.908-2.228-3.05v-5.66H54.454z" />
  <path fill="white" d="M140.812,41.731h3.002v-6.923c0-0.34,0.023-0.702,0.121-0.969c0.313-0.896,1.137-1.742,2.322-1.742   c1.621,0,2.25,1.282,2.25,2.977v6.657h2.98v-6.995c0-3.729-2.133-5.06-4.189-5.06c-1.961,0-3.244,1.113-3.752,2.033h-0.072   l-0.146-1.767h-2.613c0.072,1.017,0.098,2.154,0.098,3.51V41.731z M130.427,34.59c0.121-1.21,0.896-2.88,2.736-2.88   c1.984,0,2.469,1.791,2.445,2.88H130.427z M138.32,36.672c0.047-0.266,0.096-0.702,0.096-1.259c0-2.59-1.258-5.736-5.082-5.736   c-3.777,0-5.762,3.074-5.762,6.342c0,3.606,2.252,5.955,6.076,5.955c1.693,0,3.098-0.315,4.113-0.727l-0.436-2.058   c-0.895,0.339-1.887,0.533-3.266,0.533c-1.889,0-3.559-0.921-3.633-3.051H138.32z M122.15,36.575c0,0.339-0.047,0.751-0.121,1.065   c-0.338,1.064-1.307,1.791-2.42,1.791c-1.863,0-2.879-1.621-2.879-3.631c0-2.396,1.232-3.849,2.902-3.849   c1.26,0,2.107,0.823,2.422,1.912c0.072,0.242,0.096,0.533,0.096,0.799V36.575z M122.634,29.943l-0.121,1.573h-0.049   c-0.557-0.969-1.621-1.84-3.412-1.84c-2.83,0-5.348,2.349-5.348,6.221c0,3.341,2.082,5.761,5.01,5.761   c1.549,0,2.758-0.702,3.436-1.742h0.049v1.017c0,2.542-1.451,3.558-3.389,3.558c-1.428,0-2.684-0.459-3.436-0.896l-0.652,2.252   c1.016,0.629,2.611,0.943,4.113,0.943c1.621,0,3.314-0.339,4.549-1.428c1.234-1.114,1.744-2.881,1.744-5.35v-6.681   c0-1.622,0.047-2.59,0.096-3.389H122.634z M100.611,41.731h3.002v-6.923c0-0.34,0.023-0.702,0.121-0.969   c0.314-0.896,1.137-1.742,2.322-1.742c1.623,0,2.252,1.282,2.252,2.977v6.657h2.977v-6.995c0-3.729-2.131-5.06-4.188-5.06   c-1.961,0-3.242,1.113-3.752,2.033h-0.072l-0.145-1.767h-2.615c0.074,1.017,0.098,2.154,0.098,3.51V41.731z M95.916,25.029   c-0.992,0-1.67,0.702-1.67,1.622c0,0.896,0.652,1.598,1.646,1.598c1.039,0,1.693-0.702,1.693-1.598   C97.562,25.731,96.931,25.029,95.916,25.029 M97.416,29.943h-3v11.788h3V29.943z M83.232,34.953c0-0.29,0.049-0.556,0.097-0.773   c0.34-1.308,1.429-2.18,2.64-2.18c1.984,0,2.977,1.695,2.977,3.776c0,2.373-1.137,3.873-3.002,3.873   c-1.283,0-2.323-0.896-2.638-2.081c-0.049-0.218-0.073-0.46-0.073-0.702V34.953z M82.7,41.731l0.146-1.768h0.048   c0.848,1.452,2.202,2.033,3.728,2.033c2.662,0,5.35-2.105,5.35-6.342c0.023-3.582-2.033-5.979-4.914-5.979   c-1.766,0-3.049,0.75-3.775,1.889h-0.049v-7.021h-2.977v13.87c0,1.21-0.049,2.518-0.098,3.316H82.7z M74.253,28.104   c0.846,0,1.451-0.678,1.451-1.477c0-0.872-0.605-1.501-1.451-1.501c-0.848,0-1.477,0.654-1.477,1.501   C72.777,27.426,73.382,28.104,74.253,28.104 M69.436,28.104c0.848,0,1.452-0.678,1.452-1.477c0-0.872-0.629-1.501-1.428-1.501   c-0.871,0-1.524,0.654-1.524,1.501C67.936,27.426,68.565,28.104,69.436,28.104 M77.036,29.943h-2.977v7.116   c0,0.339-0.072,0.653-0.169,0.92c-0.315,0.751-1.09,1.598-2.275,1.598c-1.572,0-2.203-1.259-2.203-3.22v-6.414h-2.977v6.923   c0,3.848,1.961,5.131,4.115,5.131c2.105,0,3.267-1.21,3.775-2.057h0.049l0.145,1.791h2.613c-0.047-0.968-0.097-2.13-0.097-3.534   V29.943z M58.23,41.731h2.977V27.91h4.696v-2.494H53.583v2.494h4.646V41.731z" />
  <path fill="white" d="M36.089,53.337c-3.416,0-4.457-2.006-4.457-6.389V11.831h-4.481c0,0-1.174,8.229-5.192,11.52   c-3.088,2.529-5.644,2.55-5.644,2.55v5.7h4.828v14.857c0,5.125,1.038,8.154,3.118,10.309c1.781,1.857,4.252,3.121,7.893,3.121   c3.193,0,5.868-0.371,7.354-0.967l-0.076-5.883C38.615,53.188,37.502,53.337,36.089,53.337" />
  <rect fill="white" height="6.193" width="6.194" y="25.407" x="34.65" />
</svg>