<svg id="Ebene_1" data-name="Ebene 1" xmlns="http://www.w3.org/2000/svg" width="76.79mm" height="24.6mm" viewBox="0 0 217.68 69.73"><defs><style>.cls-1{fill:#d10019;}.cls-2{fill:#fabb00;}</style></defs><path class="cls-1" d="M151.06,11.9S161,1.74,180,1.74s30.2,12,31.78,20.92-1.58,12.83-3.85,15-5.82,2.37-7.1,1.08-2.86-4.34-4.84-6.9-4.34-5-7.5-6.22a23.51,23.51,0,0,0-5.52-1.38s4.44-1,6.71-4.25,2.76-4.64,4-5.13,3.36-1,3.75-2.17-1.28-5.23-8.29-7.3S165.37,1,151.06,11.9Zm31.78,12.44s-7.6-2.08-17.08,3.84a22.15,22.15,0,0,0-9.57,19.64c1.09,16.68,19.44,21.91,19.44,21.91S152.24,61,160.34,40.92C165.27,28.78,182.84,24.34,182.84,24.34Z"/><path class="cls-2" d="M174.65,1s26.84-6.22,38.09,13.22c11.55,19.84.2,33.95-7.11,38.69-13.22,8.58-19.83,6.81-29.41,5.33-6.61-1-7.3-.4-7.3-.4a9.42,9.42,0,0,1,.2-8.19c1.38-3.06,4.64-2.86,6.41-2.86a120.29,120.29,0,0,1,12.93,1.77s8.59,2.18,15.3-1.87,12.83-13.92,9.47-25S203.76,7.26,197.05,4,180.86.55,174.65,1Zm-5.43,61.28a29.19,29.19,0,0,0,19.93,7.11c12.73-.3,23.79-8.69,23.79-8.69s-12.34,8-23.59,7.6c-16.78-.59-20.43-10.36-20.43-10.36C166.36,59,168.33,61.25,169.22,62.23Z"/><path d="M168.53,15.55a10,10,0,0,0-1.88,0,28.61,28.61,0,0,0-5,1c-1.48.39-5,1.87-5.63,2.07-.79.3-2.17.69-2.37.4s-.09-.89.1-1.48,1.19-1.88,1.39-2.37c.29-.69-.3-.79-2-.2C147.9,16.74,142,24.14,142,24.14c6.71-10.66,13.72-13.82,13.72-13.82s9.87-5.43,19.24-5.43a33.88,33.88,0,0,1,9.18,1.29c.69.19,3.45.88,3.55,2.27s-1.28,1.58-2.07,1.67-3.45.6-5.43,1.09c-.2.1-8,1.87-11.64,4.34M153,50.88s-2.76-8.48,4.25-19.74a32.93,32.93,0,0,1,6.21-7.5c2.67-2.56,6.52-5.42,6.91-5.82a1,1,0,0,0-.1-1.58,5.79,5.79,0,0,0-1.87-.79,34.64,34.64,0,0,0-8.29,6.91C147.11,37.76,153,50.88,153,50.88Z"/><path d="M18.12,14.63a16.39,16.39,0,0,0-5.91-1.12c-4.39,0-7.56,2.77-7.56,7.75,0,4.72,2.58,7.49,7.1,7.49a9.7,9.7,0,0,0,2.84-.39V20.6h4.29V31.23a21.09,21.09,0,0,1-7.63,1.38C4.19,32.61,0,28.45,0,21.66c0-7,4.75-12,12.47-12a22.78,22.78,0,0,1,6.31,1Z"/><path d="M35.71,24.76H25.54c0,3.07,1.49,4.55,4.52,4.55a11.76,11.76,0,0,0,4.79-1l.39,3.27a16.32,16.32,0,0,1-5.87,1.05c-5.21,0-8.12-2.6-8.12-8.38,0-5,2.77-8.71,7.69-8.71s6.9,3.27,6.9,7.32A15.09,15.09,0,0,1,35.71,24.76Zm-6.9-6.14c-1.75,0-3,1.29-3.2,3.27h6C31.71,19.84,30.59,18.62,28.81,18.62Z"/><path d="M47.19,19.68c-3-.63-4.55,1.35-4.55,5.9v6.7H38.41V15.88h4a21.27,21.27,0,0,1-.29,3.3h.06c.8-2.08,2.38-3.89,5.22-3.66Z"/><path d="M69,32.28V21.89c0-1.75-.4-2.84-2-2.84-1.85,0-3.76,2.18-3.76,5.38v7.85H59.1V21.89c0-1.62-.33-2.84-1.94-2.84-1.95,0-3.77,2.31-3.77,5.38v7.85H49.17V15.88h4a18.81,18.81,0,0,1-.23,2.94H53a5.88,5.88,0,0,1,5.41-3.3,4.24,4.24,0,0,1,4.52,3.3,5.81,5.81,0,0,1,5.35-3.3c3.16,0,4.91,1.75,4.91,5.48V32.28Z"/><path d="M85.57,32.28a19,19,0,0,1,.16-2.77l0,0a5.56,5.56,0,0,1-5.25,3.13c-3,0-4.68-1.68-4.68-4.32,0-3.93,3.89-6,9.47-6v-.89c0-1.71-.83-2.6-3.2-2.6a10.74,10.74,0,0,0-4.85,1.28l-.37-3.53a18,18,0,0,1,5.88-1c5.28,0,6.76,2.14,6.76,5.71v6.83c0,1.32,0,2.87.1,4.22ZM85.24,25c-4.46,0-5.45,1.29-5.45,2.61a1.72,1.72,0,0,0,1.95,1.75,3.78,3.78,0,0,0,3.5-4Z"/><path d="M103.19,32.28V21.79c0-1.72-.46-2.74-2-2.74-2.15,0-3.83,2.44-3.83,5.31v7.92H93.12V15.88h4a18.75,18.75,0,0,1-.23,2.91l0,0a6,6,0,0,1,5.58-3.3c3.69,0,4.88,2.37,4.88,5.25V32.28Z"/><path d="M118.47,33.8c-2,5.12-3.66,6.67-7.43,6.67a10.57,10.57,0,0,1-2.31-.27l.27-3.63a7.46,7.46,0,0,0,2.24.37c1.39,0,2.31-.63,3.17-3.07l.56-1.59-6-16.4h4.69l2.21,6.27c.49,1.42.92,3,1.29,4.52h0c.36-1.48,1-3.66,1.58-5.21l2-5.58h4.52Z"/><path d="M10.83,43A5.5,5.5,0,0,0,9,42.72C6.93,42.72,6,44,6,45.21c0,2.65,4.09,2.73,4.09,5.79,0,2.35-2,4.11-4.89,4.11a7.05,7.05,0,0,1-2-.25l.24-1.24A5.28,5.28,0,0,0,5.3,54c2.22,0,3.47-1.19,3.47-2.85,0-2.5-4-2.54-4-5.7,0-2,1.61-3.76,4.5-3.76a7.34,7.34,0,0,1,1.78.17Z"/><path d="M12.61,55H11.45l1.81-9.64h1.16Zm1.67-11.48a.8.8,0,0,1-.78-.87.94.94,0,0,1,.92-.88.78.78,0,0,1,.78.86A1,1,0,0,1,14.28,43.48Z"/><path d="M28,55H26.8L28,48.71c.34-1.76,0-2.55-.95-2.55-2,0-4.1,4.32-4.58,6.88L22.09,55H20.91l1.18-6.25c.34-1.76,0-2.55-.95-2.55-2,0-4.1,4.32-4.58,6.88L16.2,55H15l1.79-9.64h1.22c-.14.68-.44,1.94-1.2,4.36l0,0c.87-2.27,2.49-4.55,4.56-4.55A1.68,1.68,0,0,1,23.31,47a8.94,8.94,0,0,1-.57,2.67h0c.87-2.27,2.49-4.55,4.56-4.55,1.61,0,2.26,1.22,1.86,3.31Z"/><path d="M33.87,55.07a9.37,9.37,0,0,1-1.56-.13l-.89,4.88H30.24l2.7-14.5h1.22c-.17.91-.46,2-1.2,4.46l0,0c1-2.54,2.58-4.65,4.67-4.65,1.31,0,2,.85,2,2.87C39.72,51.51,38,55.07,33.87,55.07Zm3.5-8.89c-2.11,0-4.18,4.34-4.68,6.8l-.15.85a5.44,5.44,0,0,0,1.56.27c3.19,0,4.41-3.21,4.41-5.87C38.51,46.76,38,46.18,37.37,46.18Z"/><path d="M42.1,55H40.94L43.58,40.8h1.16Z"/><path d="M46.3,58.27A4.83,4.83,0,0,1,43.07,60a5,5,0,0,1-1.28-.14L42,58.66a3.36,3.36,0,0,0,1.2.19,3.4,3.4,0,0,0,2.32-1.33A4.8,4.8,0,0,0,46.75,54a35.46,35.46,0,0,0-1.33-8.69h1.35a37.83,37.83,0,0,1,1.14,8,7.9,7.9,0,0,1-.17,1.47h0a83.7,83.7,0,0,0,4.75-9.91l1.1.37C51.26,50.93,48.75,55.77,46.3,58.27Z"/><path d="M58.7,55H57.55l1.8-9.64h1.16Zm1.68-11.48a.79.79,0,0,1-.78-.87.93.93,0,0,1,.91-.88.77.77,0,0,1,.78.86A.94.94,0,0,1,60.38,43.48Z"/><path d="M69.1,55H67.92l1.16-6.25c.34-1.74,0-2.53-1-2.53-2.07,0-4.2,4.32-4.65,6.82l-.36,2H61.9l1.78-9.64H64.9a44,44,0,0,1-1.2,4.36l0,0c.91-2.28,2.53-4.55,4.63-4.55,1.7,0,2.32,1.22,1.94,3.31Z"/><path d="M77.76,46.37a4.87,4.87,0,0,0-1.54-.23c-1.4,0-2.16.71-2.16,1.66,0,1.79,3.15,2.08,3.15,4.29,0,1.59-1.39,3-3.89,3A10.29,10.29,0,0,1,71.74,55L72,53.81a5.19,5.19,0,0,0,1.59.26c1.43,0,2.43-.61,2.43-1.81,0-1.72-3.15-2-3.15-4.32,0-1.55,1.24-2.77,3.51-2.77a8.11,8.11,0,0,1,1.64.15Z"/><path d="M81.9,55.07a9.37,9.37,0,0,1-1.56-.13l-.89,4.88H78.27L81,45.32h1.22c-.17.91-.46,2-1.2,4.46l0,0c1-2.54,2.58-4.65,4.67-4.65,1.31,0,2,.85,2,2.87C87.75,51.51,86,55.07,81.9,55.07Zm3.5-8.89c-2.11,0-4.18,4.34-4.68,6.8l-.15.85a5.44,5.44,0,0,0,1.56.27c3.19,0,4.41-3.21,4.41-5.87C86.54,46.76,86.06,46.18,85.4,46.18Z"/><path d="M90.13,55H89l1.81-9.64h1.16ZM91.8,43.48a.8.8,0,0,1-.78-.87.94.94,0,0,1,.92-.88.77.77,0,0,1,.77.86A.93.93,0,0,1,91.8,43.48Z"/><path d="M99.29,46.35c-2-.52-4,4.09-4.39,6.36L94.48,55H93.32l1.79-9.64h1.18a31.9,31.9,0,0,1-1.09,4h0c1.12-2.55,2.32-4.55,4.28-4.18Z"/><path d="M100.71,55H99.55l1.81-9.64h1.16Zm1.67-11.48a.79.79,0,0,1-.77-.87.93.93,0,0,1,.91-.88.78.78,0,0,1,.78.86A1,1,0,0,1,102.38,43.48Z"/><path d="M111.11,55h-1.18l1.16-6.25c.34-1.74,0-2.53-1-2.53-2.07,0-4.2,4.32-4.66,6.82l-.36,2H103.9l1.79-9.64h1.22c-.14.68-.44,1.92-1.2,4.36l0,0c.91-2.28,2.52-4.55,4.63-4.55,1.7,0,2.32,1.22,1.94,3.31Z"/><path d="M120.66,56C120.28,58.12,119,60,115.44,60a7.43,7.43,0,0,1-2.4-.35l.25-1.26a6.47,6.47,0,0,0,2.49.5c2.09,0,3.34-.81,3.82-3.31a37.14,37.14,0,0,1,1.27-5l0,0c-.57,1.41-2.09,4.61-4.67,4.61-1.31,0-2-.85-2-2.87,0-3.49,1.72-7,5.83-7a12.08,12.08,0,0,1,2.7.27Zm-.89-9.88c-3.25,0-4.43,3.23-4.43,5.89,0,1.47.46,2.05,1.12,2.05,2.11,0,4.22-4.34,4.7-6.86l.17-.87A5.83,5.83,0,0,0,119.77,46.16Z"/></svg>